<?xml version="1.0" encoding="UTF-8"?>
<svg width="180" height="60" viewBox="0 0 180 60" xmlns="http://www.w3.org/2000/svg">
  <!-- Minimal Y - Sharp and angular with wide arms and narrow stem -->
  <g transform="translate(30, 30)">
    <path d="M-12,-15 L-3,0 L-3,15 L3,15 L3,0 L12,-15 L6,-15 L0,-6 L-6,-15 Z" 
          fill="black" 
          stroke="none"/>
  </g>
  
  <!-- Minimal A - Traditional triangular structure with clean crossbar -->
  <g transform="translate(90, 30)">
    <path d="M-15,15 L-10,0 L-5,-10 L0,-15 L5,-10 L10,0 L15,15 L9,15 L7,7 L-7,7 L-9,15 Z M-4,1 L4,1 L0,-5 Z" 
          fill="black" 
          stroke="none"/>
  </g>
  
  <!-- Minimal Z - Straight and angular, blocky and modern -->
  <g transform="translate(150, 30)">
    <path d="M-12,-15 L12,-15 L12,-8 L-3,8 L12,8 L12,15 L-12,15 L-12,8 L3,-8 L-12,-8 Z" 
          fill="black" 
          stroke="none"/>
  </g>
</svg>
